# xmcd CD database file
# Copyright (C) 1997 Ti Kan
# 
# Track frame offsets:
#     182
#     10320
#     29047
#     53055
#     76770
#     107295
#     128917
#     154770
#     176700
#     203972
#     223447
# 
# Disc length: 3170 seconds
# 
# Revision: 1
# Processed by: cddbd v1.4b41PL1 Copyright (c) Steve Scherf et al.
# Submitted via: DiscPlay 4.0.4
# 
DISCID=950c600b
DTITLE=Michael Katon - Proud To Be Loud
DYEAR=1900
DGENRE=
TTITLE0=Gotta Move
TTITLE1=Boogie Whip
TTITLE2=Tight White Pants
TTITLE3=I Ain't Ready To Go Steady
TTITLE4=Roadhouse 69
TTITLE5=Boogie Is My Business
TTITLE6=Boogie Man
TTITLE7=Burn Me (With Electricity)
TTITLE8=Love Stepped In My Way
TTITLE9=Proud To Be Loud
TTITLE10=Cat Squirrel
EXTD=
EXTT0=
EXTT1=
EXTT2=
EXTT3=
EXTT4=
EXTT5=
EXTT6=
EXTT7=
EXTT8=
EXTT9=
EXTT10=
PLAYORDER=
